<mxfile host="Electron" agent="Mozilla/5.0 (Windows NT 10.0; Win64; x64) AppleWebKit/537.36 (KHTML, like Gecko) draw.io/23.1.5 Chrome/120.0.6099.109 Electron/28.1.0 Safari/537.36" modified="2025-09-18T14:23:42.772Z" etag="xuaDG16EUNwuQHlc1Z9X" version="23.1.5" type="device">
  <diagram id="jxP2lz2wRCVgSaz3puim" name="Seite-1">
    <mxGraphModel dx="1434" dy="964" grid="1" gridSize="10" guides="1" tooltips="1" connect="1" arrows="1" fold="1" page="1" pageScale="1" pageWidth="827" pageHeight="1300" math="0" shadow="0">
      <root>
        <mxCell id="0" />
        <mxCell id="1" parent="0" />
        <mxCell id="EJfDLHVy8dq6VVgnGaEE-44" style="edgeStyle=orthogonalEdgeStyle;rounded=0;orthogonalLoop=1;jettySize=auto;html=1;exitX=1;exitY=0.25;exitDx=0;exitDy=0;entryX=0;entryY=0.25;entryDx=0;entryDy=0;" parent="1" source="u0j348jdfoMHpP_zHssR-1" target="EJfDLHVy8dq6VVgnGaEE-1" edge="1">
          <mxGeometry relative="1" as="geometry">
            <Array as="points">
              <mxPoint x="370" y="250" />
              <mxPoint x="370" y="82" />
            </Array>
          </mxGeometry>
        </mxCell>
        <mxCell id="u0j348jdfoMHpP_zHssR-1" value="Line/Phono &lt;br&gt;Input Stage" style="rounded=0;whiteSpace=wrap;html=1;" parent="1" vertex="1">
          <mxGeometry x="230" y="230" width="120" height="80" as="geometry" />
        </mxCell>
        <mxCell id="u0j348jdfoMHpP_zHssR-2" value="Line In" style="rounded=0;whiteSpace=wrap;html=1;" parent="1" vertex="1">
          <mxGeometry x="90" y="230" width="90" height="30" as="geometry" />
        </mxCell>
        <mxCell id="u0j348jdfoMHpP_zHssR-3" value="Phono In" style="rounded=0;whiteSpace=wrap;html=1;" parent="1" vertex="1">
          <mxGeometry x="90" y="280" width="90" height="30" as="geometry" />
        </mxCell>
        <mxCell id="u0j348jdfoMHpP_zHssR-13" style="edgeStyle=orthogonalEdgeStyle;rounded=0;orthogonalLoop=1;jettySize=auto;html=1;exitX=1;exitY=0.5;exitDx=0;exitDy=0;entryX=0;entryY=0.5;entryDx=0;entryDy=0;" parent="1" source="u0j348jdfoMHpP_zHssR-4" target="u0j348jdfoMHpP_zHssR-12" edge="1">
          <mxGeometry relative="1" as="geometry" />
        </mxCell>
        <mxCell id="u0j348jdfoMHpP_zHssR-4" value="Mic In" style="rounded=0;whiteSpace=wrap;html=1;" parent="1" vertex="1">
          <mxGeometry x="90" y="345" width="90" height="30" as="geometry" />
        </mxCell>
        <mxCell id="u0j348jdfoMHpP_zHssR-5" style="edgeStyle=orthogonalEdgeStyle;rounded=0;orthogonalLoop=1;jettySize=auto;html=1;exitX=0.5;exitY=1;exitDx=0;exitDy=0;" parent="1" source="u0j348jdfoMHpP_zHssR-1" target="u0j348jdfoMHpP_zHssR-1" edge="1">
          <mxGeometry relative="1" as="geometry" />
        </mxCell>
        <mxCell id="u0j348jdfoMHpP_zHssR-9" style="edgeStyle=orthogonalEdgeStyle;rounded=0;orthogonalLoop=1;jettySize=auto;html=1;exitX=0.5;exitY=1;exitDx=0;exitDy=0;" parent="1" source="u0j348jdfoMHpP_zHssR-1" target="u0j348jdfoMHpP_zHssR-1" edge="1">
          <mxGeometry relative="1" as="geometry" />
        </mxCell>
        <mxCell id="u0j348jdfoMHpP_zHssR-10" style="edgeStyle=orthogonalEdgeStyle;rounded=0;orthogonalLoop=1;jettySize=auto;html=1;exitX=1;exitY=0.5;exitDx=0;exitDy=0;entryX=0.001;entryY=0.18;entryDx=0;entryDy=0;entryPerimeter=0;" parent="1" source="u0j348jdfoMHpP_zHssR-2" target="u0j348jdfoMHpP_zHssR-1" edge="1">
          <mxGeometry relative="1" as="geometry" />
        </mxCell>
        <mxCell id="u0j348jdfoMHpP_zHssR-11" style="edgeStyle=orthogonalEdgeStyle;rounded=0;orthogonalLoop=1;jettySize=auto;html=1;exitX=1;exitY=0.5;exitDx=0;exitDy=0;entryX=0.001;entryY=0.823;entryDx=0;entryDy=0;entryPerimeter=0;" parent="1" source="u0j348jdfoMHpP_zHssR-3" target="u0j348jdfoMHpP_zHssR-1" edge="1">
          <mxGeometry relative="1" as="geometry" />
        </mxCell>
        <mxCell id="u0j348jdfoMHpP_zHssR-12" value="Mic Input Stage / EQ" style="rounded=0;whiteSpace=wrap;html=1;" parent="1" vertex="1">
          <mxGeometry x="230" y="330" width="120" height="60" as="geometry" />
        </mxCell>
        <mxCell id="u0j348jdfoMHpP_zHssR-14" value="Kill Switch / Splitter" style="rounded=0;whiteSpace=wrap;html=1;" parent="1" vertex="1">
          <mxGeometry x="430" y="230" width="120" height="160" as="geometry" />
        </mxCell>
        <mxCell id="u0j348jdfoMHpP_zHssR-17" value="Crossover" style="rounded=0;whiteSpace=wrap;html=1;" parent="1" vertex="1">
          <mxGeometry x="430" y="520" width="120" height="280" as="geometry" />
        </mxCell>
        <mxCell id="u0j348jdfoMHpP_zHssR-28" style="edgeStyle=orthogonalEdgeStyle;rounded=0;orthogonalLoop=1;jettySize=auto;html=1;exitX=1;exitY=0.5;exitDx=0;exitDy=0;entryX=0;entryY=0.5;entryDx=0;entryDy=0;" parent="1" source="u0j348jdfoMHpP_zHssR-20" target="u0j348jdfoMHpP_zHssR-17" edge="1">
          <mxGeometry relative="1" as="geometry" />
        </mxCell>
        <mxCell id="u0j348jdfoMHpP_zHssR-52" value="32x DP" style="edgeLabel;html=1;align=center;verticalAlign=middle;resizable=0;points=[];" parent="u0j348jdfoMHpP_zHssR-28" vertex="1" connectable="0">
          <mxGeometry x="-0.2582" relative="1" as="geometry">
            <mxPoint x="6" as="offset" />
          </mxGeometry>
        </mxCell>
        <mxCell id="u0j348jdfoMHpP_zHssR-20" value="Microcontroller / &lt;br&gt;Digital Potentiometer" style="rounded=0;whiteSpace=wrap;html=1;" parent="1" vertex="1">
          <mxGeometry x="230" y="520" width="120" height="280" as="geometry" />
        </mxCell>
        <mxCell id="u0j348jdfoMHpP_zHssR-44" style="edgeStyle=orthogonalEdgeStyle;rounded=0;orthogonalLoop=1;jettySize=auto;html=1;exitX=0.5;exitY=1;exitDx=0;exitDy=0;entryX=0.75;entryY=0;entryDx=0;entryDy=0;" parent="1" edge="1">
          <mxGeometry relative="1" as="geometry">
            <mxPoint x="520" y="390" as="sourcePoint" />
            <mxPoint x="520" y="520" as="targetPoint" />
          </mxGeometry>
        </mxCell>
        <mxCell id="u0j348jdfoMHpP_zHssR-51" value="Treble" style="edgeLabel;html=1;align=center;verticalAlign=middle;resizable=0;points=[];rotation=90;fontSize=11;" parent="u0j348jdfoMHpP_zHssR-44" vertex="1" connectable="0">
          <mxGeometry x="-0.3109" y="1" relative="1" as="geometry">
            <mxPoint y="15" as="offset" />
          </mxGeometry>
        </mxCell>
        <mxCell id="u0j348jdfoMHpP_zHssR-76" style="edgeStyle=orthogonalEdgeStyle;rounded=0;orthogonalLoop=1;jettySize=auto;html=1;entryX=0;entryY=0.5;entryDx=0;entryDy=0;" parent="1" source="u0j348jdfoMHpP_zHssR-59" target="u0j348jdfoMHpP_zHssR-70" edge="1">
          <mxGeometry relative="1" as="geometry">
            <Array as="points">
              <mxPoint x="560" y="945" />
              <mxPoint x="560" y="945" />
            </Array>
          </mxGeometry>
        </mxCell>
        <mxCell id="u0j348jdfoMHpP_zHssR-77" style="edgeStyle=orthogonalEdgeStyle;rounded=0;orthogonalLoop=1;jettySize=auto;html=1;exitX=1;exitY=0.5;exitDx=0;exitDy=0;entryX=0;entryY=0.5;entryDx=0;entryDy=0;" parent="1" source="u0j348jdfoMHpP_zHssR-59" target="u0j348jdfoMHpP_zHssR-71" edge="1">
          <mxGeometry relative="1" as="geometry">
            <Array as="points">
              <mxPoint x="550" y="995" />
            </Array>
          </mxGeometry>
        </mxCell>
        <mxCell id="u0j348jdfoMHpP_zHssR-59" value="Equalizer" style="rounded=0;whiteSpace=wrap;html=1;verticalAlign=middle;horizontal=1;" parent="1" vertex="1">
          <mxGeometry x="230" y="930" width="320" height="180" as="geometry" />
        </mxCell>
        <mxCell id="u0j348jdfoMHpP_zHssR-70" value="Bass&amp;nbsp;Isolation" style="rounded=0;whiteSpace=wrap;html=1;" parent="1" vertex="1">
          <mxGeometry x="590" y="930" width="90" height="30" as="geometry" />
        </mxCell>
        <mxCell id="u0j348jdfoMHpP_zHssR-71" value="Kick&amp;nbsp;Isolation" style="rounded=0;whiteSpace=wrap;html=1;" parent="1" vertex="1">
          <mxGeometry x="590" y="980" width="90" height="30" as="geometry" />
        </mxCell>
        <mxCell id="u0j348jdfoMHpP_zHssR-72" value="Mid&amp;nbsp;Isolation" style="rounded=0;whiteSpace=wrap;html=1;" parent="1" vertex="1">
          <mxGeometry x="590" y="1030" width="90" height="30" as="geometry" />
        </mxCell>
        <mxCell id="u0j348jdfoMHpP_zHssR-84" value="Treble&amp;nbsp;Isolation" style="rounded=0;whiteSpace=wrap;html=1;" parent="1" vertex="1">
          <mxGeometry x="590" y="1080" width="90" height="30" as="geometry" />
        </mxCell>
        <mxCell id="u0j348jdfoMHpP_zHssR-171" value="" style="endArrow=classic;html=1;rounded=0;exitX=1;exitY=0.638;exitDx=0;exitDy=0;exitPerimeter=0;" parent="1" source="u0j348jdfoMHpP_zHssR-59" edge="1">
          <mxGeometry width="50" height="50" relative="1" as="geometry">
            <mxPoint x="560.12" y="1045.17" as="sourcePoint" />
            <mxPoint x="590" y="1044.8100000000002" as="targetPoint" />
            <Array as="points">
              <mxPoint x="580" y="1044.8100000000002" />
            </Array>
          </mxGeometry>
        </mxCell>
        <mxCell id="u0j348jdfoMHpP_zHssR-172" value="" style="endArrow=classic;html=1;rounded=0;exitX=1.001;exitY=0.412;exitDx=0;exitDy=0;exitPerimeter=0;entryX=0;entryY=0.5;entryDx=0;entryDy=0;" parent="1" target="u0j348jdfoMHpP_zHssR-84" edge="1">
          <mxGeometry width="50" height="50" relative="1" as="geometry">
            <mxPoint x="550" y="1094.92" as="sourcePoint" />
            <mxPoint x="580" y="1094.92" as="targetPoint" />
          </mxGeometry>
        </mxCell>
        <mxCell id="u0j348jdfoMHpP_zHssR-180" style="edgeStyle=orthogonalEdgeStyle;rounded=0;orthogonalLoop=1;jettySize=auto;html=1;entryX=0.405;entryY=0;entryDx=0;entryDy=0;entryPerimeter=0;" parent="1" target="u0j348jdfoMHpP_zHssR-203" edge="1">
          <mxGeometry relative="1" as="geometry">
            <mxPoint x="359.88" y="1110" as="sourcePoint" />
            <mxPoint x="359.64" y="1179.46" as="targetPoint" />
            <Array as="points">
              <mxPoint x="360" y="1140" />
              <mxPoint x="360" y="1140" />
            </Array>
          </mxGeometry>
        </mxCell>
        <mxCell id="u0j348jdfoMHpP_zHssR-186" value="Bass Line" style="edgeLabel;html=1;align=center;verticalAlign=middle;resizable=0;points=[];rotation=90;" parent="u0j348jdfoMHpP_zHssR-180" vertex="1" connectable="0">
          <mxGeometry x="-0.1353" y="1" relative="1" as="geometry">
            <mxPoint as="offset" />
          </mxGeometry>
        </mxCell>
        <mxCell id="u0j348jdfoMHpP_zHssR-188" style="edgeStyle=orthogonalEdgeStyle;rounded=0;orthogonalLoop=1;jettySize=auto;html=1;entryX=0.469;entryY=0;entryDx=0;entryDy=0;entryPerimeter=0;" parent="1" target="u0j348jdfoMHpP_zHssR-203" edge="1">
          <mxGeometry relative="1" as="geometry">
            <mxPoint x="380.12" y="1110" as="sourcePoint" />
            <mxPoint x="379.88" y="1179.46" as="targetPoint" />
            <Array as="points" />
          </mxGeometry>
        </mxCell>
        <mxCell id="u0j348jdfoMHpP_zHssR-189" value="Kick Line" style="edgeLabel;html=1;align=center;verticalAlign=middle;resizable=0;points=[];rotation=90;" parent="u0j348jdfoMHpP_zHssR-188" vertex="1" connectable="0">
          <mxGeometry x="-0.1353" y="1" relative="1" as="geometry">
            <mxPoint as="offset" />
          </mxGeometry>
        </mxCell>
        <mxCell id="u0j348jdfoMHpP_zHssR-190" style="edgeStyle=orthogonalEdgeStyle;rounded=0;orthogonalLoop=1;jettySize=auto;html=1;entryX=0.531;entryY=0;entryDx=0;entryDy=0;entryPerimeter=0;" parent="1" target="u0j348jdfoMHpP_zHssR-203" edge="1">
          <mxGeometry relative="1" as="geometry">
            <mxPoint x="400.12" y="1110" as="sourcePoint" />
            <mxPoint x="399.88" y="1179.46" as="targetPoint" />
            <Array as="points">
              <mxPoint x="400" y="1140" />
              <mxPoint x="400" y="1140" />
            </Array>
          </mxGeometry>
        </mxCell>
        <mxCell id="u0j348jdfoMHpP_zHssR-191" value="Mid&amp;nbsp;Line" style="edgeLabel;html=1;align=center;verticalAlign=middle;resizable=0;points=[];rotation=90;" parent="u0j348jdfoMHpP_zHssR-190" vertex="1" connectable="0">
          <mxGeometry x="-0.1353" y="1" relative="1" as="geometry">
            <mxPoint as="offset" />
          </mxGeometry>
        </mxCell>
        <mxCell id="u0j348jdfoMHpP_zHssR-193" style="edgeStyle=orthogonalEdgeStyle;rounded=0;orthogonalLoop=1;jettySize=auto;html=1;entryX=0.594;entryY=0;entryDx=0;entryDy=0;entryPerimeter=0;" parent="1" target="u0j348jdfoMHpP_zHssR-203" edge="1">
          <mxGeometry relative="1" as="geometry">
            <mxPoint x="420.12" y="1110" as="sourcePoint" />
            <mxPoint x="419.88" y="1179.46" as="targetPoint" />
            <Array as="points" />
          </mxGeometry>
        </mxCell>
        <mxCell id="u0j348jdfoMHpP_zHssR-194" value="Treble Line" style="edgeLabel;html=1;align=center;verticalAlign=middle;resizable=0;points=[];rotation=90;" parent="u0j348jdfoMHpP_zHssR-193" vertex="1" connectable="0">
          <mxGeometry x="-0.1353" y="1" relative="1" as="geometry">
            <mxPoint as="offset" />
          </mxGeometry>
        </mxCell>
        <mxCell id="u0j348jdfoMHpP_zHssR-203" value="Output Stage / VU Meter" style="rounded=0;whiteSpace=wrap;html=1;verticalAlign=middle;horizontal=1;" parent="1" vertex="1">
          <mxGeometry x="230" y="1190" width="320" height="80" as="geometry" />
        </mxCell>
        <mxCell id="u0j348jdfoMHpP_zHssR-206" value="Line Left" style="rounded=0;whiteSpace=wrap;html=1;" parent="1" vertex="1">
          <mxGeometry x="590" y="1190" width="90" height="30" as="geometry" />
        </mxCell>
        <mxCell id="u0j348jdfoMHpP_zHssR-207" value="Line Right" style="rounded=0;whiteSpace=wrap;html=1;" parent="1" vertex="1">
          <mxGeometry x="590" y="1240" width="90" height="30" as="geometry" />
        </mxCell>
        <mxCell id="EJfDLHVy8dq6VVgnGaEE-1" value="Auxiliary Stage" style="rounded=0;whiteSpace=wrap;html=1;" parent="1" vertex="1">
          <mxGeometry x="430" y="50" width="120" height="130" as="geometry" />
        </mxCell>
        <mxCell id="EJfDLHVy8dq6VVgnGaEE-18" style="edgeStyle=orthogonalEdgeStyle;rounded=0;orthogonalLoop=1;jettySize=auto;html=1;exitX=0.5;exitY=1;exitDx=0;exitDy=0;entryX=0.5;entryY=0;entryDx=0;entryDy=0;" parent="1" edge="1">
          <mxGeometry relative="1" as="geometry">
            <mxPoint x="489.76" y="180" as="sourcePoint" />
            <mxPoint x="489.76" y="230" as="targetPoint" />
          </mxGeometry>
        </mxCell>
        <mxCell id="EJfDLHVy8dq6VVgnGaEE-19" value="AUX&lt;div&gt;Sum&lt;/div&gt;" style="edgeLabel;html=1;align=center;verticalAlign=middle;resizable=0;points=[];rotation=90;fontSize=11;" parent="EJfDLHVy8dq6VVgnGaEE-18" vertex="1" connectable="0">
          <mxGeometry x="-0.1872" relative="1" as="geometry">
            <mxPoint as="offset" />
          </mxGeometry>
        </mxCell>
        <mxCell id="EJfDLHVy8dq6VVgnGaEE-20" value="AUX&lt;br&gt;Send" style="rounded=0;whiteSpace=wrap;html=1;" parent="1" vertex="1">
          <mxGeometry x="590" y="50" width="90" height="50" as="geometry" />
        </mxCell>
        <mxCell id="EJfDLHVy8dq6VVgnGaEE-25" value="" style="endArrow=classic;html=1;rounded=0;exitX=1.002;exitY=0.308;exitDx=0;exitDy=0;exitPerimeter=0;entryX=0;entryY=0.5;entryDx=0;entryDy=0;" parent="1" target="EJfDLHVy8dq6VVgnGaEE-20" edge="1">
          <mxGeometry width="50" height="50" relative="1" as="geometry">
            <mxPoint x="550" y="74.91999999999996" as="sourcePoint" />
            <mxPoint x="580" y="74.92000000000002" as="targetPoint" />
          </mxGeometry>
        </mxCell>
        <mxCell id="EJfDLHVy8dq6VVgnGaEE-26" value="" style="endArrow=classic;html=1;rounded=0;exitX=1.002;exitY=0.308;exitDx=0;exitDy=0;exitPerimeter=0;entryX=0;entryY=0.2;entryDx=0;entryDy=0;entryPerimeter=0;" parent="1" target="EJfDLHVy8dq6VVgnGaEE-20" edge="1">
          <mxGeometry width="50" height="50" relative="1" as="geometry">
            <mxPoint x="550" y="59.99999999999997" as="sourcePoint" />
            <mxPoint x="580" y="60" as="targetPoint" />
          </mxGeometry>
        </mxCell>
        <mxCell id="EJfDLHVy8dq6VVgnGaEE-27" value="" style="endArrow=classic;html=1;rounded=0;exitX=1.002;exitY=0.308;exitDx=0;exitDy=0;exitPerimeter=0;entryX=0;entryY=0.8;entryDx=0;entryDy=0;entryPerimeter=0;" parent="1" target="EJfDLHVy8dq6VVgnGaEE-20" edge="1">
          <mxGeometry width="50" height="50" relative="1" as="geometry">
            <mxPoint x="550" y="90" as="sourcePoint" />
            <mxPoint x="580" y="90" as="targetPoint" />
          </mxGeometry>
        </mxCell>
        <mxCell id="EJfDLHVy8dq6VVgnGaEE-28" value="AUX&lt;br&gt;Return" style="rounded=0;whiteSpace=wrap;html=1;" parent="1" vertex="1">
          <mxGeometry x="590" y="130" width="90" height="50" as="geometry" />
        </mxCell>
        <mxCell id="EJfDLHVy8dq6VVgnGaEE-29" value="" style="endArrow=classic;html=1;rounded=0;exitX=0;exitY=0.5;exitDx=0;exitDy=0;entryX=0;entryY=1;entryDx=0;entryDy=0;" parent="1" source="EJfDLHVy8dq6VVgnGaEE-28" edge="1">
          <mxGeometry width="50" height="50" relative="1" as="geometry">
            <mxPoint x="580" y="154.81" as="sourcePoint" />
            <mxPoint x="550" y="154.80999999999995" as="targetPoint" />
          </mxGeometry>
        </mxCell>
        <mxCell id="EJfDLHVy8dq6VVgnGaEE-30" value="" style="endArrow=classic;html=1;rounded=0;exitX=0;exitY=0.198;exitDx=0;exitDy=0;exitPerimeter=0;entryX=0;entryY=1;entryDx=0;entryDy=0;" parent="1" source="EJfDLHVy8dq6VVgnGaEE-28" edge="1">
          <mxGeometry width="50" height="50" relative="1" as="geometry">
            <mxPoint x="580" y="139.89" as="sourcePoint" />
            <mxPoint x="550" y="139.89" as="targetPoint" />
          </mxGeometry>
        </mxCell>
        <mxCell id="EJfDLHVy8dq6VVgnGaEE-31" value="" style="endArrow=classic;html=1;rounded=0;exitX=0;exitY=0.8;exitDx=0;exitDy=0;exitPerimeter=0;entryX=0;entryY=1;entryDx=0;entryDy=0;" parent="1" source="EJfDLHVy8dq6VVgnGaEE-28" edge="1">
          <mxGeometry width="50" height="50" relative="1" as="geometry">
            <mxPoint x="580" y="169.89" as="sourcePoint" />
            <mxPoint x="550" y="169.89" as="targetPoint" />
          </mxGeometry>
        </mxCell>
        <mxCell id="EJfDLHVy8dq6VVgnGaEE-42" value="" style="endArrow=classic;html=1;rounded=0;entryX=0;entryY=0.435;entryDx=0;entryDy=0;entryPerimeter=0;exitX=1;exitY=0.869;exitDx=0;exitDy=0;exitPerimeter=0;" parent="1" edge="1">
          <mxGeometry width="50" height="50" relative="1" as="geometry">
            <mxPoint x="350" y="370" as="sourcePoint" />
            <mxPoint x="430" y="370" as="targetPoint" />
          </mxGeometry>
        </mxCell>
        <mxCell id="EJfDLHVy8dq6VVgnGaEE-43" value="" style="endArrow=classic;html=1;rounded=0;entryX=0;entryY=0.435;entryDx=0;entryDy=0;entryPerimeter=0;exitX=1;exitY=0.869;exitDx=0;exitDy=0;exitPerimeter=0;" parent="1" edge="1">
          <mxGeometry width="50" height="50" relative="1" as="geometry">
            <mxPoint x="350" y="290" as="sourcePoint" />
            <mxPoint x="430" y="290" as="targetPoint" />
          </mxGeometry>
        </mxCell>
        <mxCell id="EJfDLHVy8dq6VVgnGaEE-45" style="edgeStyle=orthogonalEdgeStyle;rounded=0;orthogonalLoop=1;jettySize=auto;html=1;exitX=1;exitY=0.25;exitDx=0;exitDy=0;entryX=0;entryY=0.692;entryDx=0;entryDy=0;entryPerimeter=0;" parent="1" source="u0j348jdfoMHpP_zHssR-12" target="EJfDLHVy8dq6VVgnGaEE-1" edge="1">
          <mxGeometry relative="1" as="geometry">
            <Array as="points">
              <mxPoint x="350" y="350" />
              <mxPoint x="400" y="350" />
              <mxPoint x="400" y="140" />
            </Array>
          </mxGeometry>
        </mxCell>
        <mxCell id="gGnI4rr4556b_yqHNYFl-7" style="edgeStyle=orthogonalEdgeStyle;rounded=0;orthogonalLoop=1;jettySize=auto;html=1;exitX=1;exitY=0.5;exitDx=0;exitDy=0;entryX=0;entryY=0.5;entryDx=0;entryDy=0;" parent="1" source="gGnI4rr4556b_yqHNYFl-8" edge="1">
          <mxGeometry relative="1" as="geometry">
            <mxPoint x="230" y="660" as="targetPoint" />
          </mxGeometry>
        </mxCell>
        <mxCell id="gGnI4rr4556b_yqHNYFl-9" value="USB" style="edgeLabel;html=1;align=center;verticalAlign=middle;resizable=0;points=[];" parent="gGnI4rr4556b_yqHNYFl-7" vertex="1" connectable="0">
          <mxGeometry x="-0.0822" y="2" relative="1" as="geometry">
            <mxPoint y="2" as="offset" />
          </mxGeometry>
        </mxCell>
        <mxCell id="gGnI4rr4556b_yqHNYFl-8" value="GUI /&amp;nbsp;&lt;br&gt;Computer" style="rounded=0;whiteSpace=wrap;html=1;" parent="1" vertex="1">
          <mxGeometry x="90" y="627.5" width="90" height="65" as="geometry" />
        </mxCell>
        <mxCell id="gGnI4rr4556b_yqHNYFl-11" value="" style="endArrow=classic;html=1;rounded=0;exitX=1.001;exitY=0.412;exitDx=0;exitDy=0;exitPerimeter=0;entryX=0;entryY=0.5;entryDx=0;entryDy=0;" parent="1" edge="1">
          <mxGeometry width="50" height="50" relative="1" as="geometry">
            <mxPoint x="550" y="1204.8500000000001" as="sourcePoint" />
            <mxPoint x="590" y="1204.93" as="targetPoint" />
          </mxGeometry>
        </mxCell>
        <mxCell id="gGnI4rr4556b_yqHNYFl-12" value="" style="endArrow=classic;html=1;rounded=0;exitX=1.001;exitY=0.412;exitDx=0;exitDy=0;exitPerimeter=0;entryX=0;entryY=0.5;entryDx=0;entryDy=0;" parent="1" edge="1">
          <mxGeometry width="50" height="50" relative="1" as="geometry">
            <mxPoint x="550" y="1254.8500000000001" as="sourcePoint" />
            <mxPoint x="590" y="1254.93" as="targetPoint" />
          </mxGeometry>
        </mxCell>
        <mxCell id="gGnI4rr4556b_yqHNYFl-15" value="&lt;ul&gt;&lt;li&gt;&lt;b&gt;Input/Output Level Measurement &lt;/b&gt;Measure the signal at the input and output stages using the Red Pitaya Oscilloscope and Signal Generator.&lt;/li&gt;&lt;/ul&gt;" style="text;strokeColor=none;fillColor=none;html=1;whiteSpace=wrap;verticalAlign=middle;overflow=hidden;" parent="1" vertex="1">
          <mxGeometry x="90" y="100" width="265" height="80" as="geometry" />
        </mxCell>
        <mxCell id="gGnI4rr4556b_yqHNYFl-16" value="&lt;ul&gt;&lt;li&gt;&lt;b&gt;Serial Interface Calibration&lt;/b&gt;&lt;br&gt;Calibrate the USB interface between the computer and the Microcontroller using the Red Pitaya Logic Analyzer.&lt;br&gt;&lt;/li&gt;&lt;/ul&gt;" style="text;strokeColor=none;fillColor=none;html=1;whiteSpace=wrap;verticalAlign=middle;overflow=hidden;" parent="1" vertex="1">
          <mxGeometry x="90" y="410" width="250" height="80" as="geometry" />
        </mxCell>
        <mxCell id="gGnI4rr4556b_yqHNYFl-17" style="edgeStyle=orthogonalEdgeStyle;rounded=0;orthogonalLoop=1;jettySize=auto;html=1;exitX=0.5;exitY=1;exitDx=0;exitDy=0;entryX=0.75;entryY=0;entryDx=0;entryDy=0;" parent="1" edge="1">
          <mxGeometry relative="1" as="geometry">
            <mxPoint x="500" y="390" as="sourcePoint" />
            <mxPoint x="500" y="520" as="targetPoint" />
          </mxGeometry>
        </mxCell>
        <mxCell id="gGnI4rr4556b_yqHNYFl-18" value="Mid" style="edgeLabel;html=1;align=center;verticalAlign=middle;resizable=0;points=[];rotation=90;fontSize=11;" parent="gGnI4rr4556b_yqHNYFl-17" vertex="1" connectable="0">
          <mxGeometry x="-0.3109" y="1" relative="1" as="geometry">
            <mxPoint y="15" as="offset" />
          </mxGeometry>
        </mxCell>
        <mxCell id="gGnI4rr4556b_yqHNYFl-19" style="edgeStyle=orthogonalEdgeStyle;rounded=0;orthogonalLoop=1;jettySize=auto;html=1;exitX=0.5;exitY=1;exitDx=0;exitDy=0;entryX=0.75;entryY=0;entryDx=0;entryDy=0;" parent="1" edge="1">
          <mxGeometry relative="1" as="geometry">
            <mxPoint x="480" y="390" as="sourcePoint" />
            <mxPoint x="480" y="520" as="targetPoint" />
          </mxGeometry>
        </mxCell>
        <mxCell id="gGnI4rr4556b_yqHNYFl-20" value="Kick" style="edgeLabel;html=1;align=center;verticalAlign=middle;resizable=0;points=[];rotation=90;fontSize=11;" parent="gGnI4rr4556b_yqHNYFl-19" vertex="1" connectable="0">
          <mxGeometry x="-0.3109" y="1" relative="1" as="geometry">
            <mxPoint y="15" as="offset" />
          </mxGeometry>
        </mxCell>
        <mxCell id="gGnI4rr4556b_yqHNYFl-21" style="edgeStyle=orthogonalEdgeStyle;rounded=0;orthogonalLoop=1;jettySize=auto;html=1;exitX=0.5;exitY=1;exitDx=0;exitDy=0;entryX=0.75;entryY=0;entryDx=0;entryDy=0;" parent="1" edge="1">
          <mxGeometry relative="1" as="geometry">
            <mxPoint x="460" y="390" as="sourcePoint" />
            <mxPoint x="460" y="520" as="targetPoint" />
          </mxGeometry>
        </mxCell>
        <mxCell id="gGnI4rr4556b_yqHNYFl-22" value="Bass" style="edgeLabel;html=1;align=center;verticalAlign=middle;resizable=0;points=[];rotation=90;fontSize=11;" parent="gGnI4rr4556b_yqHNYFl-21" vertex="1" connectable="0">
          <mxGeometry x="-0.3109" y="1" relative="1" as="geometry">
            <mxPoint y="15" as="offset" />
          </mxGeometry>
        </mxCell>
        <mxCell id="gGnI4rr4556b_yqHNYFl-32" style="edgeStyle=orthogonalEdgeStyle;rounded=0;orthogonalLoop=1;jettySize=auto;html=1;exitX=0.5;exitY=1;exitDx=0;exitDy=0;entryX=0.75;entryY=0;entryDx=0;entryDy=0;" parent="1" edge="1">
          <mxGeometry relative="1" as="geometry">
            <mxPoint x="519.41" y="800" as="sourcePoint" />
            <mxPoint x="519.41" y="930" as="targetPoint" />
          </mxGeometry>
        </mxCell>
        <mxCell id="gGnI4rr4556b_yqHNYFl-33" value="Treble" style="edgeLabel;html=1;align=center;verticalAlign=middle;resizable=0;points=[];rotation=90;fontSize=11;" parent="gGnI4rr4556b_yqHNYFl-32" vertex="1" connectable="0">
          <mxGeometry x="-0.3109" y="1" relative="1" as="geometry">
            <mxPoint y="15" as="offset" />
          </mxGeometry>
        </mxCell>
        <mxCell id="gGnI4rr4556b_yqHNYFl-34" style="edgeStyle=orthogonalEdgeStyle;rounded=0;orthogonalLoop=1;jettySize=auto;html=1;exitX=0.5;exitY=1;exitDx=0;exitDy=0;entryX=0.75;entryY=0;entryDx=0;entryDy=0;" parent="1" edge="1">
          <mxGeometry relative="1" as="geometry">
            <mxPoint x="499.41" y="800" as="sourcePoint" />
            <mxPoint x="499.41" y="930" as="targetPoint" />
          </mxGeometry>
        </mxCell>
        <mxCell id="gGnI4rr4556b_yqHNYFl-35" value="Mid" style="edgeLabel;html=1;align=center;verticalAlign=middle;resizable=0;points=[];rotation=90;fontSize=11;" parent="gGnI4rr4556b_yqHNYFl-34" vertex="1" connectable="0">
          <mxGeometry x="-0.3109" y="1" relative="1" as="geometry">
            <mxPoint y="15" as="offset" />
          </mxGeometry>
        </mxCell>
        <mxCell id="gGnI4rr4556b_yqHNYFl-36" style="edgeStyle=orthogonalEdgeStyle;rounded=0;orthogonalLoop=1;jettySize=auto;html=1;exitX=0.5;exitY=1;exitDx=0;exitDy=0;entryX=0.75;entryY=0;entryDx=0;entryDy=0;" parent="1" edge="1">
          <mxGeometry relative="1" as="geometry">
            <mxPoint x="479.41" y="800" as="sourcePoint" />
            <mxPoint x="479.41" y="930" as="targetPoint" />
          </mxGeometry>
        </mxCell>
        <mxCell id="gGnI4rr4556b_yqHNYFl-37" value="Kick" style="edgeLabel;html=1;align=center;verticalAlign=middle;resizable=0;points=[];rotation=90;fontSize=11;" parent="gGnI4rr4556b_yqHNYFl-36" vertex="1" connectable="0">
          <mxGeometry x="-0.3109" y="1" relative="1" as="geometry">
            <mxPoint y="15" as="offset" />
          </mxGeometry>
        </mxCell>
        <mxCell id="gGnI4rr4556b_yqHNYFl-38" style="edgeStyle=orthogonalEdgeStyle;rounded=0;orthogonalLoop=1;jettySize=auto;html=1;exitX=0.5;exitY=1;exitDx=0;exitDy=0;entryX=0.75;entryY=0;entryDx=0;entryDy=0;" parent="1" edge="1">
          <mxGeometry relative="1" as="geometry">
            <mxPoint x="459.41" y="800" as="sourcePoint" />
            <mxPoint x="459.41" y="930" as="targetPoint" />
          </mxGeometry>
        </mxCell>
        <mxCell id="gGnI4rr4556b_yqHNYFl-39" value="Bass" style="edgeLabel;html=1;align=center;verticalAlign=middle;resizable=0;points=[];rotation=90;fontSize=11;" parent="gGnI4rr4556b_yqHNYFl-38" vertex="1" connectable="0">
          <mxGeometry x="-0.3109" y="1" relative="1" as="geometry">
            <mxPoint y="15" as="offset" />
          </mxGeometry>
        </mxCell>
        <mxCell id="gGnI4rr4556b_yqHNYFl-40" value="&lt;div&gt;&lt;br&gt;&lt;/div&gt;&lt;ul&gt;&lt;li&gt;&lt;b&gt;Crossover Network Calibration&lt;/b&gt;&lt;br&gt;Calibrate the crossover network in the audio path using the Red Pitaya Spectrum Analyzer&lt;br&gt;&lt;br&gt;&lt;/li&gt;&lt;li&gt;&lt;b&gt;Equalizer Calibration&lt;/b&gt;&lt;br&gt;Calibrate the equalizer stage using&lt;br&gt;the Red Pitaya Spectrum Analyzer.&lt;/li&gt;&lt;/ul&gt;" style="text;strokeColor=none;fillColor=none;html=1;whiteSpace=wrap;verticalAlign=middle;overflow=hidden;" parent="1" vertex="1">
          <mxGeometry x="90" y="790" width="300" height="140" as="geometry" />
        </mxCell>
      </root>
    </mxGraphModel>
  </diagram>
</mxfile>
